<svg xmlns:dc="http://purl.org/dc/elements/1.1/" xmlns:cc="http://creativecommons.org/ns#" xmlns:rdf="http://www.w3.org/1999/02/22-rdf-syntax-ns#" xmlns:svg="http://www.w3.org/2000/svg" xmlns="http://www.w3.org/2000/svg" xmlns:sodipodi="http://sodipodi.sourceforge.net/DTD/sodipodi-0.dtd" xmlns:inkscape="http://www.inkscape.org/namespaces/inkscape" version="1.1" x="0px" y="0px" viewBox="0 0 100 125"><g transform="translate(0,-952.36218)"><path d="m 24.935873,973.87763 c -3.0156,-1.3921 -6.647,-2.0949 -9.8036,-2.4481 -2.3495,-0.263 -4.4002,-0.3321 -5.7945004,-0.2198 -1.0104,-0.013 -1.5589999,0.34 -2.1924999,0.7847 -0.3796,0.9034 0.032,1.3191 0.6891,1.8206 5.1953003,2.4294 7.3913003,4.6675 8.7699993,6.8738 0.589701,0.9438 1.036501,1.9011 1.472101,2.8877 -2.686,5.41 -4.3511,11.6207 -4.6043,17.89107 -0.5289,13.0994 5.2531,26.4713 20.5701,32.1191 6.2717,2.1454 13.9462,1.0135 18.4566,-4.9375 1.8882,-2.7168 2.9272,-5.5792 3.9778,-8.4434 7.5763,6.8023 15.6352,13.3775 24.5561,19.9313 0.5227,0.4565 0.9661,0.1074 1.406,-0.081 0.2819,-0.3073 0.4143,-0.7465 0.1914,-1.1116 -6.1464,-8.4168 -12.313,-16.0926 -18.6676,-23.2898 3.4616,2.3429 6.6591,5.6951 10.1168,7.3762 2.6671,1.2606 5.7564,1.6236 8.8327,-0.157 9.1018,-5.2683 14.8494,-19.5819 4.7609,-37.10027 -7.5852,-13.1714 -22.0252,-21.1427 -36.6163,-21.4101 -7.0773,-0.071 -19.7628,3.033 -26.1208,9.5144 z m 26.0604,-7.4388 c 13.9077,0.2571 27.7394,7.8136 34.9539,20.3413 9.6931,16.83177 4.0248,29.66987 -4.0404,34.33817 -2.5031,1.4488 -4.6865,1.1801 -6.9848,0.094 -4.9943,-2.3323 -8.863,-7.9877 -13.8754,-8.7882 -9.5361,-10.2507 -19.5998,-20.00657 -28.5339,-27.74677 -0.029,-3.0916 -1.6948,-6.1506 -3.7273,-8.2235 -0.5823,-0.5837 -1.2413,-1.1055 -1.9733,-1.5695 6.392,-5.8061 17.1643,-8.5843 24.1812,-8.4459 z m -40.2491,6.8111 c 1.1777,-0.024 2.4417,-0.036 4.1658,0.157 4.4846,0.5019 9.986,1.9719 12.4659,4.457 2.1773,2.4582 4.4176,6.8251 2.0986,9.2595 -2.6697,2.4929 -5.8756,1.9409 -7.6425,-0.5964 -1.416,-2.0904 -1.9639,-4.3842 -3.5393,-6.9053 -1.315901,-2.106 -3.7406,-4.2394 -7.5485,-6.3718 z m 34.5163,0.9733 c -1.5794,1.1287 -2.7538,3.0107 -3.5706,3.8293 -1.2869,1.1405 -3.001,1.9831 -3.8212,3.3584 -0.5076,0.8795 -0.5334,2.1162 0.1252,3.233 0.6587,1.1168 1.8667,2.1977 3.8839,3.4841 3.5274,1.9728 7.6478,1.1887 9.835,-1.6636 2.5638,-3.7259 1.3388,-7.1411 -0.6578,-10.358 -1.6936,-2.4598 -3.382,-3.2505 -5.7945,-1.8832 z m 4.1032,2.95 c 1.8651,2.7773 2.4603,5.7481 0.7517,8.0981 -1.9551,2.2436 -4.7944,2.637 -7.1727,1.1613 -1.8807,-1.1993 -2.848,-2.1526 -3.2261,-2.7935 -0.378,-0.6409 -0.3161,-0.8393 -0.094,-1.2242 0.9779,-1.2376 2.3765,-2.0099 3.508,-2.919 1.1404,-1.1427 2.2623,-2.9074 3.2888,-3.641 1.3775,-0.8961 2.3368,0.3626 2.9442,1.3183 z m 13.4682,2.4173 c -0.999,1.001 -2.4119,2.5086 -3.3827,4.1118 -0.975,1.6396 -1.463,3.7546 -0.1566,5.1161 1.5946,1.5981 3.7224,2.5598 5.7945,2.8564 3.4554,0.4941 4.9275,-1.4 7.4232,-2.5738 2.0539,-0.623 3.1764,-2.1671 2.725,-4.1432 -0.3042,-1.2471 -1.0229,-2.8327 -2.3178,-5.1476 -2.8034,-4.205 -6.8721,-3.3922 -10.0856,-0.2197 z m 8.3316,1.1925 c 0.9062,1.8111 2.3196,3.8265 2.0672,5.7753 -2.6992,1.2334 -5.1355,3.4935 -7.8617,3.1388 -1.6488,-0.2358 -3.4267,-1.0484 -4.6669,-2.2913 -0.5937,-0.9568 0.02,-1.83 0.4385,-2.6679 0.8009,-1.3228 2.1426,-2.775 3.1008,-3.7352 2.5338,-2.2353 5.2351,-3.1488 6.9221,-0.2197 z m -51.9625,5.2104 c 0.2841,0.5439 0.5946,1.1079 0.971,1.6635 2.0537,2.5926 4.3736,3.6072 7.2353,3.0446 0.1809,0.1299 0.3893,0.4038 0.5324,0.5651 -2.0085,0.9104 -4.0727,2.7758 -4.6043,4.6139 -0.299,1.1182 -1.349,3.0555 -1.5347,4.99057 -0.093,0.968 0.086,2.0622 0.877,2.8564 1.9288,1.4169 3.8107,1.0986 5.8884,1.6321 1.784,0.5982 3.4559,0.2399 4.6043,-1.0357 1.2391,-1.6139 1.888,-2.8971 2.631,-4.42567 6.1492,6.56427 12.431,12.81587 19.0748,18.86407 -1.1604,3.0007 -2.2844,6.3118 -4.0091,8.7257 -5.8884,6.1078 -10.8286,6.1504 -16.4831,4.0886 -14.2754,-5.4128 -19.4098,-17.6433 -18.9103,-30.0148 0.5737,-5.55697 1.7913,-11.16727 3.7273,-15.56837 z m 13.1551,1.0671 c 1.2657,1.127 2.4873,2.2586 3.7272,3.3899 l -3.2574,3.233 c -1.1236,-1.2382 -2.2319,-2.4715 -3.3514,-3.7352 0.9797,-0.9797 1.8943,-1.8982 2.8816,-2.8877 z m -2.9443,5.8382 c 1.6065,1.796 3.207,3.5898 4.8236,5.3359 -0.7099,2.00837 -2.0789,4.62647 -3.6647,5.49287 -2.0977,-0.5898 -4.8133,-0.6358 -6.4835,-1.4124 -0.2743,-0.2757 -0.3736,-0.6269 -0.3132,-1.2555 0.1207,-1.25797 1.086,-3.11577 1.5034,-4.67687 0.9144,-1.953 2.321,-2.8423 4.1344,-3.484 z m 44.3513,3.8293 c -1.0845,1.0869 -2.1571,2.6511 -2.7563,4.30007 -0.5894,1.7436 -0.5969,3.6952 0.6265,4.9593 1.6537,1.6572 3.8848,2.2286 5.8571,2.2286 2.9817,0.1074 4.4594,-1.6148 6.6402,-2.7936 1.8732,-0.7753 2.7407,-2.2871 2.1298,-4.1117 -0.3836,-1.098 -1.1481,-2.47147 -2.443,-4.42577 -2.7019,-2.7502 -7.553,-2.5631 -10.0543,-0.1569 z m 8.3629,1.2869 c 0.898,1.5351 2.2576,3.15977 2.3177,4.89647 -2.2962,1.4172 -4.4838,3.2621 -6.9534,3.2958 -1.5713,0 -3.2664,-0.4799 -4.4476,-1.6636 -0.7221,-0.915 -0.4008,-1.9141 -0.1567,-2.8563 0.4639,-1.2767 1.4139,-2.64107 2.2865,-3.51537 2.1556,-1.4416 4.908,-1.9332 6.9535,-0.157 z m -50.2711,14.37537 c -1.1275,1.9572 -1.5032,4.2892 -1.2528,6.3718 0.4227,3.4628 2.6582,4.3997 4.4163,6.5286 1.149,1.8442 2.8977,2.4959 4.6982,1.538 1.1233,-0.6172 2.4577,-1.6943 4.3537,-3.5468 2.0211,-1.9748 2.1891,-4.3463 1.3469,-6.0893 -1.9225,-3.1077 -5.4066,-5.0153 -8.5508,-5.9636 -1.7886,-0.5006 -3.9732,-0.5572 -5.0115,1.1613 z m 4.4477,0.7535 c 2.6419,1.0389 6.0541,2.4189 7.3292,4.9279 0.5559,1.1503 0.6275,2.2354 -0.9396,3.7665 -1.4995,1.3492 -3.122,3.1831 -5.0428,3.4841 -1.8946,-2.3048 -4.678,-4.0625 -5.0428,-6.8111 -0.1992,-1.6571 0.1253,-3.5941 1.0023,-5.1163 0.764,-0.7731 1.7944,-0.4177 2.6937,-0.2511 z" style="text-indent:0;text-transform:none;direction:ltr;block-progression:tb;baseline-shift:baseline;color:#000000;enable-background:accumulate;" fill="#000000" fill-opacity="1" stroke="none" marker="none" visibility="visible" display="inline" overflow="visible"/></g><text x="0" y="115" fill="#000000" font-size="5px" font-weight="bold" font-family="'Helvetica Neue', Helvetica, Arial-Unicode, Arial, Sans-serif">Created by AFY Studio</text><text x="0" y="120" fill="#000000" font-size="5px" font-weight="bold" font-family="'Helvetica Neue', Helvetica, Arial-Unicode, Arial, Sans-serif">from the Noun Project</text></svg>